<?xml version="1.0" encoding="UTF-8" standalone="no"?>
<svg width="361.244mm" height="40.9222mm"
 viewBox="0 0 1024 116"
 xmlns="http://www.w3.org/2000/svg" xmlns:xlink="http://www.w3.org/1999/xlink"  version="1.2" baseProfile="tiny">
<title>Qt Svg Document</title>
<desc>Generated with Qt</desc>
<defs>
</defs>
<g fill="none" stroke="black" stroke-width="1" fill-rule="evenodd" stroke-linecap="square" stroke-linejoin="bevel" >

<g fill="#ffffff" fill-opacity="1" stroke="none" transform="matrix(1,0,0,1,0,0)"
font-family="Helvetica" font-size="12" font-weight="400" font-style="normal" 
>
<path vector-effect="non-scaling-stroke" fill-rule="evenodd" d="M0,0 L1024,0 L1024,116 L0,116 L0,0"/>
<path vector-effect="non-scaling-stroke" fill-rule="evenodd" d="M0,0 L1024,0 L1024,116 L0,116 L0,0"/>
</g>

<g fill="#dd7926" fill-opacity="1" stroke="#dd7926" stroke-opacity="1" stroke-width="1" stroke-linecap="square" stroke-linejoin="bevel" transform="matrix(1,0,0,1,70.1404,78.0642)"
font-family="Montserrat" font-size="38" font-weight="400" font-style="normal" 
>
<text fill="#dd7926" fill-opacity="1" stroke="none" xml:space="preserve" x="0" y="0" font-family="Montserrat" font-size="38" font-weight="400" font-style="normal" 
 >S</text>
</g>

<g fill="#767676" fill-opacity="1" stroke="none" transform="matrix(0.668807,0,0,0.668807,7.4672,8.39683)"
font-family="Helvetica" font-size="12" font-weight="400" font-style="normal" 
>
<path vector-effect="non-scaling-stroke" fill-rule="nonzero" d="M98.6,134.8 L121.2,134.8 L72.3,83.9 L119.2,36.6 L96,36.6 L57.8,75.1 C55.2,77.7 53.9,80.7 53.9,84.1 C53.9,86.9 55.2,89.6 57.8,92.3 L98.6,134.8"/>
<path vector-effect="non-scaling-stroke" fill-rule="nonzero" d="M36.7,24.6 L53.2,24.6 L53.2,134.8 L36.7,134.8 L36.7,24.6"/>
</g>

<g fill="#bbbcbb" fill-opacity="1" stroke="none" transform="matrix(0.668807,0,0,0.668807,7.4672,8.39683)"
font-family="Helvetica" font-size="12" font-weight="400" font-style="normal" 
>
<path vector-effect="non-scaling-stroke" fill-rule="nonzero" d="M123.5,25 L62.9,25 L62.9,29.7 L123.4,29.7 C129.1,29.7 133.8,35.8 133.8,43.3 L133.8,127.4 C133.8,134.9 129.1,141 123.4,141 L28.9,141 C23.2,141 18.5,134.9 18.5,127.4 L18.5,43.3 C18.5,36.1 22.7,30.3 28.1,29.8 L28.1,25.1 C20.2,25.6 13.8,33.6 13.8,43.3 L13.8,127.4 C13.8,137.5 20.5,145.7 28.8,145.7 L123.4,145.7 C131.7,145.7 138.4,137.5 138.4,127.4 L138.4,43.3 C138.5,33.2 131.8,25 123.5,25 "/>
</g>

<g fill="#dd7926" fill-opacity="1" stroke="none" transform="matrix(0.668807,0,0,0.668807,7.4672,8.39683)"
font-family="Helvetica" font-size="12" font-weight="400" font-style="normal" 
>
<path vector-effect="non-scaling-stroke" fill-rule="nonzero" d="M53.1,24.6 L53.2,24.6 L53.2,3.3 L36.6,3.3 L36.6,24.6 L36.7,24.6 L53.1,24.6"/>
</g>
</g>
</svg>
